<svg id="Capa_1" enable-background="new 0 0 511.976 511.976" height="512" viewBox="0 0 511.976 511.976" width="512" xmlns="http://www.w3.org/2000/svg"><g><g><path d="m271.039 406.622 115.918-111.053c5.142-4.926 11.15-8.439 17.523-10.515 15.086-4.914 32.232-1.825 44.802 9.385 19.923 17.744 20.588 48.659 1.453 67.235l-111.477 108.262" fill="#ffcbbe"/><path d="m80.321 485.145h191.219c23.477 0 46.642-5.374 67.721-15.709l139.517-68.407c23.948-11.742 32.893-41.345 19.453-64.383-12.073-20.697-38.029-28.636-59.615-18.233l-144.612 69.693-213.683-34.697" fill="#ffddce"/><path d="m161.84 398.478h95.816c9.704 0 18.512-3.81 25.031-10.006 9.809-8.07 16.065-20.301 16.065-33.995 0-24.301-19.7-44.001-44.001-44.001h-58.396c-9.944-20.287-30.785-34.26-54.903-34.26-33.762 0-61.131 27.369-61.131 61.131v102.422" fill="#ffddce"/><path d="m165.381 281.077c-21.86 9.32-37.17 31-37.17 56.27v110.403l-47.89-7.983v-102.42c0-33.77 27.37-61.14 61.13-61.14 8.5 0 16.58 1.74 23.93 4.87z" fill="#ffcbbe"/><path d="m478.778 401.529-139.52 68.41c-21.08 10.34-44.24 15.71-67.72 15.71h-191.22v-53.19h191.22c23.48 0 46.64-5.38 67.72-15.71l139.52-68.41c7.14-3.5 12.95-8.59 17.23-14.62.79 1.1 1.53 2.24 2.22 3.43 13.44 23.04 4.5 52.64-19.45 64.38z" fill="#ffcbbe"/><path d="m7.5 337.347h72.821v148.299h-72.821z" fill="#5766cb"/><path d="m7.5 432.452h72.821v53.193h-72.821z" fill="#3d4fc3"/><g><circle cx="279.481" cy="140.995" fill="#ffd064" r="114.664"/><circle cx="279.481" cy="140.995" fill="#ffe07d" r="85.184"/></g><g><g><g fill="#ffe07d"><path d="m136.961 198.286-1.144-1.982c-4.034-6.989-12.79-9.661-20.038-6.115l-22.295 10.907c-7.986 3.907-10.993 13.76-6.548 21.46l2.842 4.924c4.444 7.7 14.48 10.025 21.858 5.064l20.597-13.849c6.695-4.502 8.762-13.42 4.728-20.409z"/><path d="m122.381 142.158v-2.288c.001-8.069-6.246-14.761-14.296-15.314l-24.762-1.702c-8.869-.61-16.4 6.42-16.401 15.311l-.001 5.685c-.001 8.89 7.527 15.922 16.397 15.315l24.762-1.695c8.051-.552 14.3-7.242 14.301-15.312z"/><path d="m135.727 85.693 1.144-1.981c4.035-6.988 1.971-15.907-4.724-20.411l-20.594-13.855c-7.376-4.963-17.413-2.64-21.859 5.059l-2.843 4.923c-4.446 7.699-1.442 17.553 6.543 21.461l22.292 10.913c7.249 3.548 16.006.879 20.041-6.109z"/></g></g><g><g fill="#ffe07d"><path d="m422.002 198.286 1.144-1.982c4.034-6.989 12.79-9.661 20.038-6.115l22.295 10.907c7.986 3.907 10.993 13.76 6.548 21.46l-2.842 4.924c-4.444 7.7-14.48 10.025-21.858 5.064l-20.597-13.849c-6.696-4.502-8.762-13.42-4.728-20.409z"/><path d="m436.582 142.158v-2.288c-.001-8.069 6.246-14.761 14.296-15.314l24.762-1.702c8.869-.61 16.4 6.42 16.401 15.311l.001 5.685c.001 8.89-7.527 15.922-16.397 15.315l-24.762-1.695c-8.051-.552-14.3-7.242-14.301-15.312z"/><path d="m423.235 85.693-1.144-1.981c-4.035-6.988-1.971-15.907 4.724-20.411l20.594-13.855c7.376-4.963 17.413-2.64 21.859 5.059l2.843 4.923c4.446 7.699 1.442 17.553-6.543 21.461l-22.293 10.913c-7.247 3.548-16.004.879-20.04-6.109z"/></g></g></g></g><g><path d="m406.837 428.446-70.877 34.759c-19.939 9.771-42.215 14.935-64.42 14.935h-183.719v-140.793c0-.005-.001-.009-.001-.014.003-9.552 2.543-18.92 7.345-27.093 2.099-3.571.905-8.167-2.666-10.266-3.568-2.096-8.167-.905-10.266 2.667-4.892 8.324-7.945 17.611-8.996 27.206h-65.737c-4.143 0-7.5 3.358-7.5 7.5v148.298c0 4.142 3.357 7.5 7.5 7.5l264.04-.005c24.479 0 49.038-5.693 71.022-16.466l70.88-34.76c3.719-1.824 5.255-6.317 3.431-10.036-1.823-3.719-6.316-5.256-10.036-3.432zm-391.837-83.599h57.821v133.298h-57.821z"/><path d="m504.711 333.375c-7.95-13.649-21.584-22.98-36.892-25.7-3.078-7.166-7.687-13.619-13.548-18.836-14.139-12.599-34.108-16.783-52.117-10.916-7.657 2.495-14.515 6.607-20.387 12.226l-76.262 73.063c.489-2.859.744-5.777.744-8.732 0-13.759-5.357-26.695-15.083-36.42-9.719-9.731-22.651-15.09-36.417-15.09h-53.894c-12.261-21.245-34.611-34.25-59.406-34.25-12.713 0-25.124 3.5-35.89 10.122-3.527 2.17-4.629 6.79-2.459 10.317 2.171 3.528 6.789 4.628 10.318 2.459 8.4-5.167 18.094-7.898 28.03-7.898 20.621 0 39.081 11.516 48.177 30.054 1.261 2.568 3.872 4.196 6.733 4.196h58.39c9.755 0 18.919 3.796 25.807 10.693 6.896 6.896 10.693 16.064 10.693 25.817 0 10.954-4.856 21.232-13.324 28.198-.139.114-.273.233-.403.357-5.389 5.124-12.442 7.945-19.862 7.945h-95.82c-4.143 0-7.5 3.358-7.5 7.5s3.357 7.5 7.5 7.5h95.82c10.165 0 19.867-3.489 27.68-9.87h8.661c1.127 0 2.24-.254 3.256-.744l144.621-69.69c5.267-2.539 10.869-3.826 16.653-3.826 13.638 0 26.366 7.309 33.222 19.079 5.441 9.328 6.717 20.155 3.592 30.488-3.122 10.325-10.176 18.624-19.866 23.369l-41.721 20.46c-3.719 1.824-5.255 6.317-3.431 10.036 1.303 2.657 3.967 4.2 6.739 4.199 1.108 0 2.234-.247 3.297-.768l41.717-20.459c13.275-6.502 23.344-18.346 27.623-32.497 4.281-14.156 2.461-29.606-4.991-42.382zm-69.347-21.211-110.443 53.22 67.22-64.4c4.229-4.047 9.161-7.007 14.659-8.798 12.956-4.221 27.321-1.21 37.495 7.855 2.461 2.19 4.612 4.685 6.424 7.4-5.29.784-10.433 2.35-15.355 4.723z"/><path d="m279.481 233.679c51.105 0 92.684-41.578 92.684-92.684s-41.578-92.685-92.684-92.685-92.685 41.578-92.685 92.684 41.579 92.685 92.685 92.685zm0-170.369c42.835 0 77.684 34.849 77.684 77.684s-34.849 77.684-77.684 77.684-77.685-34.849-77.685-77.684 34.85-77.684 77.685-77.684z"/><path d="m279.481 263.158c67.361 0 122.163-54.802 122.163-122.164s-54.801-122.163-122.163-122.163-122.164 54.802-122.164 122.164 54.803 122.163 122.164 122.163zm0-229.327c59.09 0 107.163 48.073 107.163 107.164s-48.073 107.164-107.163 107.164c-59.091 0-107.164-48.073-107.164-107.164s48.074-107.164 107.164-107.164z"/><path d="m250.262 171.093h-5.521c-4.143 0-7.5 3.358-7.5 7.5s3.357 7.5 7.5 7.5h13.021 1.063v11.508c0 4.142 3.357 7.5 7.5 7.5s7.5-3.358 7.5-7.5v-11.508h7.02v11.508c0 4.142 3.357 7.5 7.5 7.5s7.5-3.358 7.5-7.5v-11.508h.111c15.648 0 28.38-12.731 28.38-28.38 0-10.906-6.187-20.389-15.232-25.139 2.195-3.643 3.46-7.906 3.46-12.46 0-10.737-7.025-19.858-16.719-23.024v-12.702c0-4.142-3.357-7.5-7.5-7.5s-7.5 3.358-7.5 7.5v11.508h-7.02v-11.508c0-4.142-3.357-7.5-7.5-7.5s-7.5 3.358-7.5 7.5v11.508h-1.063-13.022c-4.143 0-7.5 3.358-7.5 7.5s3.357 7.5 7.5 7.5h5.521v25.937 34.26zm45.694 0h-30.694v-26.76h23.083 7.611c7.378 0 13.38 6.002 13.38 13.38s-6.002 13.38-13.38 13.38zm-7.611-41.76h-23.083v-18.437h23.083c5.083 0 9.219 4.135 9.219 9.218s-4.136 9.219-9.219 9.219z"/><path d="m142.312 192.555c-5.979-10.36-19.08-14.359-29.829-9.102l-22.295 10.907c-5.666 2.772-9.972 7.822-11.812 13.855-1.841 6.034-1.089 12.627 2.064 18.09l2.843 4.924c3.153 5.463 8.486 9.413 14.631 10.837 1.693.392 3.415.585 5.132.585 4.512 0 8.982-1.333 12.774-3.883l20.599-13.85c9.927-6.675 13.019-20.021 7.039-30.382zm-14.264 19.917-20.598 13.85c-1.824 1.227-4.006 1.63-6.151 1.133-2.142-.496-3.927-1.818-5.025-3.722l-2.843-4.924c-1.099-1.904-1.351-4.111-.709-6.214s2.083-3.793 4.058-4.76l22.296-10.907c1.1-.538 2.271-.793 3.428-.793 2.728 0 5.376 1.422 6.818 3.92l1.144 1.981c2.054 3.558.991 8.143-2.418 10.436z"/><path d="m66.674 160.549c4.232 3.954 9.85 6.15 15.611 6.15.515 0 1.03-.018 1.546-.053l24.763-1.695c11.936-.817 21.286-10.829 21.287-22.792 0 0 0 0 0-.001v-2.286c.003-11.964-9.345-21.979-21.281-22.799l-24.762-1.702c-6.29-.431-12.546 1.787-17.157 6.092-4.611 4.304-7.258 10.391-7.259 16.701v5.684c-.001 6.308 2.641 12.396 7.252 16.701zm7.748-22.383c.001-2.199.886-4.237 2.494-5.737 1.471-1.373 3.348-2.111 5.337-2.111.185 0 .37.006.556.019l24.762 1.702c4.101.282 7.312 3.721 7.311 7.832v2.287c-.001 4.109-3.213 7.548-7.312 7.829l-24.763 1.695c-2.202.15-4.286-.594-5.894-2.095-1.606-1.5-2.49-3.538-2.49-5.737v-5.684z"/><path d="m90.098 87.626 22.292 10.913c3.203 1.568 6.614 2.313 9.986 2.313 7.938 0 15.646-4.137 19.846-11.408l1.146-1.982c5.982-10.36 2.894-23.707-7.033-30.384l-20.593-13.855c-5.235-3.521-11.763-4.723-17.906-3.302-6.146 1.422-11.479 5.371-14.635 10.834l-2.843 4.922c-3.154 5.463-3.909 12.057-2.069 18.09 1.839 6.035 6.144 11.085 11.809 13.859zm3.25-24.447 2.843-4.922c1.1-1.904 2.885-3.226 5.026-3.722.598-.138 1.199-.207 1.795-.207 1.539 0 3.041.456 4.356 1.341l20.593 13.855c3.41 2.293 4.472 6.878 2.417 10.436l-1.145 1.981s-.001 0-.001.001c-2.054 3.558-6.555 4.933-10.247 3.124l-22.293-10.913c-1.975-.967-3.415-2.657-4.057-4.76-.64-2.103-.388-4.31.713-6.214z"/><path d="m422.546 224.92 20.597 13.849c3.792 2.55 8.263 3.884 12.775 3.884 1.716 0 3.438-.193 5.131-.585 6.146-1.424 11.479-5.374 14.633-10.837l2.841-4.923c3.154-5.463 3.906-12.057 2.065-18.091s-6.147-11.084-11.813-13.855l-22.295-10.907c-10.747-5.258-23.85-1.259-29.83 9.103l-1.144 1.981h.001c-5.982 10.359-2.89 23.705 7.039 30.381zm5.951-22.884c.001 0 .001-.001 0 0l1.145-1.982c1.442-2.499 4.09-3.92 6.817-3.92 1.157 0 2.329.256 3.429.793l22.295 10.908c1.976.966 3.417 2.656 4.059 4.759s.39 4.31-.71 6.214l-2.841 4.923c-1.1 1.904-2.885 3.227-5.026 3.723-2.144.497-4.326.094-6.151-1.133l-20.598-13.849c-3.411-2.293-4.473-6.877-2.419-10.436z"/><path d="m475.125 115.372-24.761 1.702c-11.937.82-21.284 10.834-21.283 22.8l.001 2.288c.003 11.962 9.353 21.972 21.287 22.79l24.763 1.695c.516.035 1.031.053 1.546.053 5.761 0 11.378-2.197 15.61-6.149 4.61-4.306 7.254-10.393 7.253-16.702l-.001-5.685c-.001-6.308-2.646-12.395-7.257-16.7s-10.861-6.529-17.158-6.092zm6.922 17.057c1.607 1.5 2.493 3.538 2.493 5.737l.001 5.685c0 2.199-.885 4.236-2.491 5.737s-3.709 2.243-5.893 2.094l-24.763-1.695c-4.101-.281-7.312-3.72-7.312-7.829 0 0 0-.001 0-.002l-.001-2.286c-.001-4.109 3.211-7.549 7.312-7.831l24.762-1.702c.187-.013.371-.019.556-.019 1.988 0 3.866.739 5.336 2.111z"/><path d="m416.741 89.445c4.199 7.271 11.907 11.407 19.847 11.407 3.37 0 6.782-.746 9.985-2.313l22.291-10.913c5.666-2.773 9.971-7.824 11.811-13.858s1.085-12.627-2.069-18.09l-2.843-4.923c-3.155-5.462-8.489-9.411-14.636-10.833-6.146-1.423-12.673-.218-17.905 3.303l-20.594 13.855c-9.926 6.678-13.015 20.024-7.031 30.385zm14.26-19.921 20.594-13.855c1.315-.885 2.817-1.341 4.356-1.341.596 0 1.196.068 1.794.207 2.143.496 3.928 1.817 5.027 3.721l2.843 4.923c1.101 1.904 1.353 4.111.712 6.214-.642 2.103-2.082 3.793-4.058 4.76l-22.291 10.913c-3.692 1.807-8.193.435-10.248-3.124 0 0-.001 0-.001-.001l-1.144-1.98c-2.055-3.559-.993-8.143 2.416-10.437z"/></g></g></svg>