<svg id="Capa_1" enable-background="new 0 0 512 512" height="512" viewBox="0 0 512 512" width="512" xmlns="http://www.w3.org/2000/svg"><g><g><path d="m380.577 7.5h-249.153c-33.679 0-60.981 27.302-60.981 60.981v375.037c0 33.679 27.302 60.981 60.981 60.981h249.153c33.679 0 60.981-27.302 60.981-60.981v-375.037c0-33.679-27.302-60.981-60.981-60.981z" fill="#365e7d"/><path d="m166.003 504.5h-34.58c-33.68 0-60.98-27.3-60.98-60.98v-375.039c0-33.68 27.3-60.98 60.98-60.98h34.58c-33.67 0-60.98 27.3-60.98 60.98v375.039c0 33.68 27.31 60.98 60.98 60.98z" fill="#2b4d66"/><path d="m401.558 82.28v347.439c0 19.21-15.57 34.78-34.78 34.78h-221.56c-19.2 0-34.78-15.57-34.78-34.78v-347.439c0-19.21 15.58-34.78 34.78-34.78h33.97v1.639c0 19.86 16.1 35.96 35.96 35.96h81.71c19.86 0 35.96-16.1 35.96-35.96v-1.639h33.96c19.21 0 34.78 15.57 34.78 34.78z" fill="#9dc6fb"/><path d="m178.478 464.499h-33.26c-19.2 0-34.78-15.57-34.78-34.78v-347.439c0-19.21 15.58-34.78 34.78-34.78h33.26c-19.2 0-34.78 15.57-34.78 34.78v347.439c0 19.21 15.58 34.78 34.78 34.78z" fill="#80b5fc"/><g><circle cx="255.998" cy="203.128" fill="#ffe07d" r="90.843"/><path d="m271.363 292.663c-4.992.863-10.122 1.304-15.359 1.304-50.176 0-90.849-40.673-90.849-90.839 0-50.176 40.673-90.849 90.849-90.849 5.237 0 10.367.441 15.359 1.304-42.85 7.287-75.471 44.606-75.471 89.545 0 44.93 32.621 82.248 75.471 89.535z" fill="#ffd064"/></g></g><g><path d="m380.58 0h-249.16c-37.76 0-68.48 30.72-68.48 68.48v375.04c0 37.76 30.72 68.48 68.48 68.48 4.142 0 7.5-3.358 7.5-7.5s-3.358-7.5-7.5-7.5c-29.489 0-53.48-23.991-53.48-53.48v-375.04c0-29.489 23.991-53.48 53.48-53.48h249.16c14.286 0 27.716 5.562 37.816 15.663s15.664 23.531 15.664 37.817v375.04c0 14.286-5.562 27.716-15.663 37.817s-23.531 15.663-37.817 15.663h-219.16c-4.142 0-7.5 3.358-7.5 7.5s3.358 7.5 7.5 7.5h219.16c37.76 0 68.479-30.72 68.479-68.48v-375.04c.001-37.76-30.719-68.48-68.479-68.48z"/><path d="m179.19 40h-33.97c-23.313 0-42.28 18.967-42.28 42.28v347.44c0 23.313 18.967 42.28 42.28 42.28h221.56c23.312 0 42.279-18.967 42.279-42.28v-311.7c0-4.142-3.357-7.5-7.5-7.5s-7.5 3.358-7.5 7.5v311.7c0 15.042-12.237 27.28-27.279 27.28h-221.56c-15.042 0-27.28-12.238-27.28-27.28v-347.44c0-15.042 12.238-27.28 27.28-27.28h26.863c2.869 21.204 21.089 37.6 43.066 37.6h81.71c21.978 0 40.197-16.396 43.066-37.6h26.854c15.042 0 27.279 12.238 27.279 27.28v5.88c0 4.142 3.357 7.5 7.5 7.5s7.5-3.358 7.5-7.5v-5.88c0-23.313-18.967-42.28-42.279-42.28h-33.96c-4.143 0-7.5 3.358-7.5 7.5v1.64c0 15.693-12.768 28.46-28.46 28.46h-81.71c-15.693 0-28.46-12.767-28.46-28.46v-1.64c.001-4.142-3.357-7.5-7.499-7.5z"/><path d="m255.998 104.785c-54.227 0-98.343 44.117-98.343 98.343s44.117 98.343 98.343 98.343c54.227 0 98.343-44.117 98.343-98.343s-44.116-98.343-98.343-98.343zm0 181.687c-45.956 0-83.343-37.388-83.343-83.343s37.388-83.343 83.343-83.343 83.343 37.388 83.343 83.343-37.388 83.343-83.343 83.343z"/><path d="m286.877 194.344c2.468-3.908 3.902-8.53 3.902-13.483 0-11.356-7.513-20.991-17.829-24.195v-13.905c0-4.142-3.357-7.5-7.5-7.5s-7.5 3.358-7.5 7.5v12.771h-8.483v-12.771c0-4.142-3.358-7.5-7.5-7.5s-7.5 3.358-7.5 7.5v12.771h-1.632-12.624c-4.142 0-7.5 3.358-7.5 7.5s3.358 7.5 7.5 7.5h5.124v65.192h-5.124c-4.142 0-7.5 3.358-7.5 7.5s3.358 7.5 7.5 7.5h12.624 1.632v12.771c0 4.142 3.358 7.5 7.5 7.5s7.5-3.358 7.5-7.5v-12.771h8.483v12.771c0 4.142 3.357 7.5 7.5 7.5s7.5-3.358 7.5-7.5v-12.771h.617c16.413 0 29.767-13.354 29.767-29.767 0-11.63-6.709-21.718-16.457-26.613zm-21.427-3.153h-25.115v-20.659h25.115c5.695 0 10.329 4.634 10.329 10.329.001 5.696-4.633 10.33-10.329 10.33zm8.118 44.534h-33.232v-29.534h25.115 8.117c8.143 0 14.767 6.625 14.767 14.767s-6.625 14.767-14.767 14.767z"/><path d="m223.57 413.385c3.873 1.476 8.203-.469 9.678-4.339l4.636-12.171h31.421l4.585 12.15c1.133 3.003 3.987 4.854 7.018 4.854.88 0 1.775-.156 2.647-.485 3.875-1.463 5.831-5.79 4.368-9.665l-25.764-68.269c-.025-.069-.053-.137-.08-.205-1.404-3.415-4.695-5.62-8.388-5.62-.002 0-.006 0-.008 0-3.695.003-6.987 2.215-8.386 5.636-.023.056-.045.113-.067.17l-26 68.266c-1.473 3.871.469 8.204 4.34 9.678zm30.096-57.949 9.978 26.438h-20.047z"/><path d="m312.77 413.876h.019c4.134 0 7.49-3.346 7.5-7.482l.081-33.153 20.726-31.838c2.26-3.472 1.278-8.118-2.193-10.377-3.471-2.258-8.118-1.278-10.377 2.194l-15.66 24.055-15.826-24.239c-2.267-3.469-6.912-4.444-10.381-2.179-3.468 2.265-4.444 6.912-2.18 10.38l20.891 31.995-.081 33.127c-.01 4.141 3.339 7.507 7.481 7.517z"/><path d="m196.466 329.636h-19.28c-4.142 0-7.5 3.358-7.5 7.5v69.241c0 4.142 3.358 7.5 7.5 7.5s7.5-3.358 7.5-7.5v-22.617c4.177-.022 9.075-.044 11.78-.044 15.121 0 27.422-12.13 27.422-27.04s-12.302-27.04-27.422-27.04zm0 39.079c-2.705 0-7.595.022-11.78.043v-24.123h11.78c6.733 0 12.422 5.514 12.422 12.04 0 6.527-5.689 12.04-12.422 12.04z"/><path d="m295.906 55c4.143 0 7.5-3.358 7.5-7.5s-3.357-7.5-7.5-7.5h-79.81c-4.142 0-7.5 3.358-7.5 7.5s3.358 7.5 7.5 7.5z"/></g></g></svg>