<svg id="Layer_3" enable-background="new 0 0 64 64" height="512" viewBox="0 0 64 64" width="512" xmlns="http://www.w3.org/2000/svg"><g><g><path d="m42 32v18c0 1.105-.895 2-2 2h-26c-1.105 0-2-.895-2-2v-22h10l4 4z" fill="#f5b953"/></g><g><path d="m32 7h.309c5.002 0 9.879-1.563 13.95-4.47l.741-.53.741.53c4.071 2.907 8.948 4.47 13.95 4.47h.309v14.906c0 4.46-2.125 8.652-5.721 11.29l-9.279 6.804-9.279-6.805c-3.596-2.637-5.721-6.83-5.721-11.289z" fill="#2b74ca"/></g><g><path d="m47 2-.741.53c-4.071 2.907-8.948 4.47-13.95 4.47h-.309v14.906c0 3.354 1.203 6.556 3.329 9.06.225.008.444.034.671.034 11.046 0 20-8.954 20-20 0-1.68-.23-3.303-.62-4.863-2.723-.743-5.314-1.948-7.638-3.607z" fill="#3d98f7"/></g><g><path d="m50 21v-7c0-1.657-1.343-3-3-3-1.657 0-3 1.343-3 3v7h-3v-7c0-3.314 2.686-6 6-6 3.314 0 6 2.686 6 6v7" fill="#4d5d7a"/></g><g><path d="m39 21h16v10h-16z" fill="#f5b953"/></g><g><path d="m32 42v18c0 1.105-.895 2-2 2h-26c-1.105 0-2-.895-2-2v-22h10l4 4z" fill="#f9d18b"/></g><g><path d="m30 63h-26c-1.654 0-3-1.346-3-3v-22c0-.553.447-1 1-1h10c.266 0 .52.105.707.293l3.707 3.707h15.586c.553 0 1 .447 1 1v18c0 1.654-1.346 3-3 3zm-27-24v21c0 .552.448 1 1 1h26c.552 0 1-.448 1-1v-17h-15c-.266 0-.52-.105-.707-.293l-3.707-3.707z"/></g><g><path d="m40 53h-8v-2h8c.552 0 1-.448 1-1v-14h2v14c0 1.654-1.346 3-3 3z"/></g><g><path d="m13 38h-2v-10c0-.553.447-1 1-1h10c.266 0 .52.105.707.293l3.707 3.707h9.586v2h-10c-.266 0-.52-.105-.707-.293l-3.707-3.707h-8.586z"/></g><g><path d="m11 58h-6v-2h6c1.103 0 2-.897 2-2s-.897-2-2-2v-2c2.206 0 4 1.794 4 4s-1.794 4-4 4z"/></g><g><path d="m11 52h-4v-2h4c1.103 0 2-.897 2-2s-.897-2-2-2h-6v-2h6c2.206 0 4 1.794 4 4s-1.794 4-4 4z"/></g><g><path d="m7 42h2v3h-2z"/></g><g><path d="m10 42h2v3h-2z"/></g><g><path d="m7 57h2v3h-2z"/></g><g><path d="m10 57h2v3h-2z"/></g><g><path d="m6 45h2v12h-2z"/></g><g><path d="m26 55c-1.654 0-3-1.346-3-3s1.346-3 3-3 3 1.346 3 3-1.346 3-3 3zm0-4c-.552 0-1 .448-1 1s.448 1 1 1 1-.448 1-1-.448-1-1-1z"/></g><g><path d="m24 49c-1.654 0-3-1.346-3-3s1.346-3 3-3 3 1.346 3 3-1.346 3-3 3zm0-4c-.552 0-1 .448-1 1s.448 1 1 1 1-.448 1-1-.448-1-1-1z"/></g><g><path d="m17 51h7v2h-7z"/></g><g><path d="m18 49h-2v-2h1.586l1.707-1.707c.187-.188.441-.293.707-.293h2v2h-1.586l-1.707 1.707c-.187.188-.441.293-.707.293z"/></g><g><path d="m24 61c-1.654 0-3-1.346-3-3s1.346-3 3-3 3 1.346 3 3-1.346 3-3 3zm0-4c-.552 0-1 .448-1 1s.448 1 1 1 1-.448 1-1-.448-1-1-1z"/></g><g><path d="m22 59h-2c-.266 0-.52-.105-.707-.293l-1.707-1.707h-1.586v-2h2c.266 0 .52.105.707.293l1.707 1.707h1.586z"/></g><g><path d="m47 41c-.208 0-.415-.064-.592-.193l-9.279-6.805c-3.838-2.815-6.129-7.338-6.129-12.097v-14.905c0-.553.447-1 1-1h.309c4.823 0 9.446-1.481 13.369-4.284l.741-.529c.348-.248.814-.248 1.162 0l.741.529c3.923 2.803 8.546 4.284 13.369 4.284h.309c.553 0 1 .447 1 1v14.905c0 4.759-2.291 9.281-6.129 12.097l-9.279 6.805c-.177.129-.384.193-.592.193zm-14-33.01v13.915c0 4.124 1.986 8.044 5.312 10.483l8.688 6.372 8.688-6.371c3.326-2.44 5.312-6.36 5.312-10.484v-13.915c-4.992-.135-9.764-1.735-13.84-4.647l-.16-.114-.16.114c-4.076 2.912-8.848 4.512-13.84 4.647z"/></g><g><path d="m55 32h-16c-.553 0-1-.447-1-1v-10c0-.553.447-1 1-1h16c.553 0 1 .447 1 1v10c0 .553-.447 1-1 1zm-15-2h14v-8h-14z"/></g><g><path d="m54 21h-2v-7c0-2.757-2.243-5-5-5s-5 2.243-5 5v7h-2v-7c0-3.859 3.141-7 7-7s7 3.141 7 7z"/></g><g><path d="m51 21h-2v-7c0-1.103-.897-2-2-2s-2 .897-2 2v7h-2v-7c0-2.206 1.794-4 4-4s4 1.794 4 4z"/></g><g><path d="m46 24h2v2h-2z"/></g></g></svg>