<svg id="Layer_3" enable-background="new 0 0 64 64" height="512" viewBox="0 0 64 64" width="512" xmlns="http://www.w3.org/2000/svg"><g><g><path d="m1 50h1.929c4.528 0 8.87-1.799 12.071-5l-3-3h10v10l-3-3c-4.482 4.482-10.561 7-16.899 7h-1.101" fill="#669e4f"/></g><g><path d="m1 14h1.929c4.528 0 8.87 1.799 12.071 5l-3 3h10v-10l-3 3c-4.482-4.482-10.561-7-16.899-7h-1.101" fill="#669e4f"/></g><g><path d="m63 50h-1.929c-4.528 0-8.87-1.799-12.071-5l3-3h-10v10l3-3c4.482 4.482 10.561 7 16.899 7h1.101" fill="#669e4f"/></g><g><path d="m63 14h-1.929c-4.528 0-8.87 1.799-12.071 5l3 3h-10v-10l3 3c4.482-4.482 10.561-7 16.899-7h1.101" fill="#669e4f"/></g><g><circle cx="32" cy="32" fill="#f5b953" r="11"/></g><g><path d="m33 39h-6v-2h6c1.103 0 2-.897 2-2s-.897-2-2-2v-2c2.206 0 4 1.794 4 4s-1.794 4-4 4z"/></g><g><path d="m33 33h-4v-2h4c1.103 0 2-.897 2-2s-.897-2-2-2h-6v-2h6c2.206 0 4 1.794 4 4s-1.794 4-4 4z"/></g><g><path d="m29 23h2v3h-2z"/></g><g><path d="m32 23h2v3h-2z"/></g><g><path d="m29 38h2v3h-2z"/></g><g><path d="m32 38h2v3h-2z"/></g><g><path d="m28 26h2v12h-2z"/></g><g><path d="m32 44c-6.617 0-12-5.383-12-12s5.383-12 12-12 12 5.383 12 12-5.383 12-12 12zm0-22c-5.514 0-10 4.486-10 10s4.486 10 10 10 10-4.486 10-10-4.486-10-10-10z"/></g><g><path d="m2.101 57h-1.101v-2h1.101c6.116 0 11.867-2.382 16.192-6.707.391-.391 1.023-.391 1.414 0l1.293 1.293v-6.586h-6.586l1.293 1.293c.391.391.391 1.023 0 1.414-3.412 3.413-7.951 5.293-12.778 5.293h-1.929v-2h1.929c3.958 0 7.697-1.421 10.636-4.021l-2.271-2.271c-.286-.286-.372-.716-.217-1.09.153-.374.519-.618.923-.618h10c.553 0 1 .448 1 1v10c0 .404-.243.769-.617.924s-.803.07-1.09-.217l-2.307-2.307c-4.612 4.264-10.57 6.6-16.885 6.6z"/></g><g><path d="m22 23h-10c-.404 0-.77-.244-.924-.617-.155-.374-.069-.804.217-1.09l2.271-2.271c-2.938-2.601-6.677-4.022-10.635-4.022h-1.929v-2h1.929c4.827 0 9.366 1.88 12.778 5.293.391.391.391 1.023 0 1.414l-1.293 1.293h6.586v-6.586l-1.293 1.293c-.391.391-1.023.391-1.414 0-4.325-4.325-10.076-6.707-16.192-6.707h-1.101v-2h1.101c6.315 0 12.273 2.336 16.886 6.6l2.307-2.307c.286-.286.715-.371 1.09-.217.373.155.616.52.616.924v10c0 .552-.447 1-1 1z"/></g><g><path d="m63 57h-1.101c-6.315 0-12.273-2.336-16.886-6.6l-2.307 2.307c-.286.287-.716.371-1.09.217-.373-.155-.616-.52-.616-.924v-10c0-.552.447-1 1-1h10c.404 0 .77.244.924.617.155.374.069.804-.217 1.09l-2.271 2.271c2.938 2.601 6.677 4.022 10.635 4.022h1.929v2h-1.929c-4.827 0-9.366-1.88-12.778-5.293-.391-.391-.391-1.023 0-1.414l1.293-1.293h-6.586v6.586l1.293-1.293c.391-.391 1.023-.391 1.414 0 4.325 4.325 10.076 6.707 16.192 6.707h1.101z"/></g><g><path d="m52 23h-10c-.553 0-1-.448-1-1v-10c0-.404.243-.769.617-.924.375-.154.804-.069 1.09.217l2.307 2.307c4.612-4.264 10.57-6.6 16.885-6.6h1.101v2h-1.101c-6.116 0-11.867 2.382-16.192 6.707-.391.391-1.023.391-1.414 0l-1.293-1.293v6.586h6.586l-1.293-1.293c-.391-.391-.391-1.023 0-1.414 3.412-3.413 7.951-5.293 12.778-5.293h1.929v2h-1.929c-3.958 0-7.697 1.421-10.636 4.021l2.271 2.271c.286.286.372.716.217 1.09-.153.374-.519.618-.923.618z"/></g></g></svg>