<svg id="Layer_3" enable-background="new 0 0 64 64" height="512" viewBox="0 0 64 64" width="512" xmlns="http://www.w3.org/2000/svg"><g><g><path d="m29 38-1.599 3.197c-.91 1.819-2.385 3.295-4.204 4.204-3.185 1.593-5.197 4.848-5.197 8.409 0 4.523 3.667 8.19 8.19 8.19h15.62c4.523 0 8.19-3.667 8.19-8.19 0-3.561-2.012-6.816-5.197-8.409-1.819-.91-3.295-2.385-4.204-4.204l-1.599-3.197" fill="#976947"/></g><g><path d="m37 14 3-12-6 3-6-3 3 12" fill="#976947"/></g><g><path d="m48 25.5c0-1.381-1.119-2.5-2.5-2.5h-2c1.381 0 2.5-1.119 2.5-2.5s-1.119-2.5-2.5-2.5h-2.5c0-2.209-1.791-4-4-4h-8c-3.357 0-6.226 2.069-7.413 5h-7.587v14h7.587c1.187 2.931 4.057 5 7.413 5h12.5c1.381 0 2.5-1.119 2.5-2.5s-1.119-2.5-2.5-2.5h2c1.381 0 2.5-1.119 2.5-2.5s-1.119-2.5-2.5-2.5h2c1.381 0 2.5-1.119 2.5-2.5z" fill="#efbe9a"/></g><g><path d="m14 32h7v2h-7z"/></g><g><path d="m14 18h7v2h-7z"/></g><g><path d="m34 39h-5c-4.962 0-9-4.037-9-9h2c0 3.859 3.14 7 7 7h5z"/></g><g><path d="m41.5 39h-7c-1.93 0-3.5-1.57-3.5-3.5s1.57-3.5 3.5-3.5h7c1.93 0 3.5 1.57 3.5 3.5s-1.57 3.5-3.5 3.5zm-7-5c-.827 0-1.5.673-1.5 1.5s.673 1.5 1.5 1.5h7c.827 0 1.5-.673 1.5-1.5s-.673-1.5-1.5-1.5z"/></g><g><path d="m43.5 34h-9c-1.93 0-3.5-1.57-3.5-3.5s1.57-3.5 3.5-3.5h9c1.93 0 3.5 1.57 3.5 3.5s-1.57 3.5-3.5 3.5zm-9-5c-.827 0-1.5.673-1.5 1.5s.673 1.5 1.5 1.5h9c.827 0 1.5-.673 1.5-1.5s-.673-1.5-1.5-1.5z"/></g><g><path d="m36 24h-1.5c-1.93 0-3.5-1.57-3.5-3.5 0-.764.242-1.491.701-2.101l1.599 1.201c-.196.261-.3.572-.3.9 0 .827.673 1.5 1.5 1.5h1.5z"/></g><g><path d="m43.5 24h-2.5v-2h2.5c.827 0 1.5-.673 1.5-1.5s-.673-1.5-1.5-1.5h-2.5v-2h2.5c1.93 0 3.5 1.57 3.5 3.5s-1.57 3.5-3.5 3.5z"/></g><g><path d="m38.5 26c-1.93 0-3.5-1.57-3.5-3.5v-2.5h-4.071c-.487 3.388-3.408 6-6.929 6v-2c2.757 0 5-2.243 5-5 0-.552.448-1 1-1h6c.552 0 1 .448 1 1v3.5c0 .827.673 1.5 1.5 1.5s1.5-.673 1.5-1.5v-4.5c0-1.654-1.346-3-3-3h-8c-3.86 0-7 3.14-7 7h-2c0-4.962 4.038-9 9-9h8c2.757 0 5 2.243 5 5v4.5c0 1.93-1.57 3.5-3.5 3.5z"/></g><g><path d="m45.5 29h-11c-1.93 0-3.5-1.57-3.5-3.5s1.57-3.5 3.5-3.5h1.5v2h-1.5c-.827 0-1.5.673-1.5 1.5s.673 1.5 1.5 1.5h11c.827 0 1.5-.673 1.5-1.5s-.673-1.5-1.5-1.5h-4.5v-2h4.5c1.93 0 3.5 1.57 3.5 3.5s-1.57 3.5-3.5 3.5z"/></g><g><path d="m41.811 63h-15.622c-5.066 0-9.189-4.122-9.189-9.189 0-3.965 2.203-7.53 5.75-9.304 1.615-.807 2.95-2.141 3.757-3.757l1.599-3.197 1.789.895-1.599 3.197c-1 2-2.652 3.652-4.652 4.651-2.865 1.433-4.644 4.311-4.644 7.515 0 3.963 3.225 7.189 7.189 7.189h15.621c3.965 0 7.19-3.226 7.19-7.189 0-3.203-1.779-6.082-4.644-7.515-2-.999-3.651-2.651-4.652-4.651l-1.599-3.197 1.789-.895 1.599 3.197c.808 1.616 2.142 2.95 3.757 3.757 3.547 1.773 5.75 5.339 5.75 9.304 0 5.067-4.123 9.189-9.189 9.189z"/></g><g><path d="m35 57h-6v-2h6c1.103 0 2-.897 2-2s-.897-2-2-2v-2c2.206 0 4 1.794 4 4s-1.794 4-4 4z"/></g><g><path d="m35 51h-4v-2h4c1.103 0 2-.897 2-2s-.897-2-2-2h-6v-2h6c2.206 0 4 1.794 4 4s-1.794 4-4 4z"/></g><g><path d="m31 41h2v3h-2z"/></g><g><path d="m34 41h2v3h-2z"/></g><g><path d="m31 56h2v3h-2z"/></g><g><path d="m34 56h2v3h-2z"/></g><g><path d="m30 44h2v12h-2z"/></g><g><path d="m37.97 14.243-1.94-.485 2.473-9.891-4.055 2.028c-.281.141-.613.141-.895 0l-4.055-2.028 2.473 9.891-1.94.485-3-12c-.095-.379.04-.778.345-1.023.304-.244.724-.289 1.073-.114l5.551 2.776 5.553-2.776c.35-.175.769-.129 1.073.114.305.245.439.644.345 1.023z"/></g><g><path d="m13 16h2v20h-2z"/></g></g></svg>