<svg id="Layer_3" enable-background="new 0 0 64 64" height="512" viewBox="0 0 64 64" width="512" xmlns="http://www.w3.org/2000/svg"><g><g><path d="m22 14h40v32h-40z" fill="#4d5d7a"/></g><g><path d="m22 14v22.106c3.296 1.845 7.034 2.894 11 2.894 12.945 0 23.491-11.105 23.977-25z" fill="#8892a0"/></g><g><path d="m46 22-1.464 1.464c-2.264 2.264-5.335 3.536-8.536 3.536-3.201 0-6.272-1.272-8.536-3.536l-1.464-1.464 1.464-1.464c2.264-2.264 5.335-3.536 8.536-3.536 3.201 0 6.272 1.272 8.536 3.536z" fill="#c7e2fc"/></g><g><path d="m42.456 18.884c-1.918-1.215-4.15-1.884-6.456-1.884-2.927 0-5.737 1.074-7.929 2.986 1.382 2.397 3.964 4.014 6.929 4.014 3.4 0 6.298-2.125 7.456-5.116z" fill="#ebf7fe"/></g><g><circle cx="36" cy="22" fill="#4d5d7a" r="2"/></g><g><circle cx="10" cy="54" fill="#f5b953" r="8"/></g><g><circle cx="10" cy="32" fill="#f5b953" r="8"/></g><g><circle cx="10" cy="10" fill="#f5b953" r="8"/></g><g><path d="m62 47h-40c-.552 0-1-.447-1-1v-32c0-.553.448-1 1-1h40c.552 0 1 .447 1 1v32c0 .553-.448 1-1 1zm-39-2h38v-30h-38z"/></g><g><path d="m30 42h-5v-2h5c.551 0 1-.448 1-1s-.449-1-1-1v-2c1.654 0 3 1.346 3 3s-1.346 3-3 3z"/></g><g><path d="m30 38h-3v-2h3c.551 0 1-.448 1-1s-.449-1-1-1h-5v-2h5c1.654 0 3 1.346 3 3s-1.346 3-3 3z"/></g><g><path d="m26 30h2v14h-2z"/></g><g><path d="m29 30h2v3h-2z"/></g><g><path d="m29 41h2v3h-2z"/></g><g><path d="m35 41h22v2h-22z"/></g><g><path d="m37 37h2v5h-2z"/></g><g><path d="m41 35h2v7h-2z"/></g><g><path d="m45 33h2v9h-2z"/></g><g><path d="m49 31h2v11h-2z"/></g><g><path d="m53 29h2v13h-2z"/></g><g><path d="m10 19c-4.962 0-9-4.037-9-9s4.038-9 9-9c2.039 0 4.037.701 5.626 1.975l-1.251 1.561c-1.253-1.005-2.766-1.536-4.375-1.536-3.86 0-7 3.141-7 7s3.14 7 7 7 7-3.141 7-7c0-.594-.074-1.183-.22-1.751l1.937-.498c.188.729.283 1.486.283 2.249 0 4.963-4.038 9-9 9z"/></g><g><path d="m10 41c-4.962 0-9-4.037-9-9s4.038-9 9-9c2.039 0 4.037.701 5.626 1.975l-1.251 1.561c-1.253-1.005-2.766-1.536-4.375-1.536-3.86 0-7 3.141-7 7s3.14 7 7 7 7-3.141 7-7c0-.594-.074-1.183-.22-1.751l1.937-.498c.188.729.283 1.486.283 2.249 0 4.963-4.038 9-9 9z"/></g><g><path d="m10 63c-4.962 0-9-4.037-9-9s4.038-9 9-9c2.039 0 4.037.701 5.626 1.975l-1.251 1.561c-1.253-1.005-2.766-1.536-4.375-1.536-3.86 0-7 3.141-7 7s3.14 7 7 7 7-3.141 7-7c0-.594-.074-1.183-.22-1.751l1.937-.498c.188.729.283 1.486.283 2.249 0 4.963-4.038 9-9 9z"/></g><g><path d="m10 15c-.017 0-.034 0-.052-.001-.332-.018-.634-.199-.806-.484l-3-5 1.715-1.029 2.235 3.725 8.108-10.811 1.6 1.2-9 12c-.189.253-.486.4-.8.4z"/></g><g><path d="m10 37c-.017 0-.034 0-.052-.001-.332-.018-.634-.199-.806-.484l-3-5 1.715-1.029 2.235 3.725 8.108-10.811 1.6 1.199-9 12c-.189.254-.486.401-.8.401z"/></g><g><path d="m10 59c-.017 0-.034 0-.052-.001-.332-.018-.634-.199-.806-.484l-3-5 1.715-1.029 2.235 3.725 8.108-10.811 1.6 1.199-9 12c-.189.254-.486.401-.8.401z"/></g><g><path d="m36 28c-3.492 0-6.774-1.359-9.243-3.828l-1.464-1.465c-.391-.391-.391-1.023 0-1.414l1.464-1.465c2.469-2.469 5.751-3.828 9.243-3.828s6.774 1.359 9.243 3.828l1.464 1.465c.391.391.391 1.023 0 1.414l-1.464 1.465c-2.469 2.469-5.751 3.828-9.243 3.828zm-8.586-6 .757.758c2.091 2.091 4.871 3.242 7.829 3.242s5.738-1.151 7.829-3.242l.757-.758-.757-.758c-2.091-2.091-4.871-3.242-7.829-3.242s-5.738 1.151-7.829 3.242z"/></g><g><path d="m36 25c-1.654 0-3-1.346-3-3s1.346-3 3-3 3 1.346 3 3-1.346 3-3 3zm0-4c-.551 0-1 .448-1 1s.449 1 1 1 1-.448 1-1-.449-1-1-1z"/></g><g><path d="m34 46h2v4h-2z"/></g><g><path d="m48 46h2v4h-2z"/></g><g><path d="m32 49h20v2h-20z"/></g></g></svg>