<svg id="Layer_3" enable-background="new 0 0 64 64" height="512" viewBox="0 0 64 64" width="512" xmlns="http://www.w3.org/2000/svg"><g><g><path d="m36 36c5.523 0 10-4.477 10-10 0-4.734-3.293-8.69-7.71-9.726.452-1.173.71-2.442.71-3.774 0-5.799-4.701-10.5-10.5-10.5-4.213 0-7.836 2.487-9.509 6.068-.325-.041-.655-.068-.991-.068-4.418 0-8 3.582-8 8 0 .067.008.132.01.199-4.569.923-8.01 4.96-8.01 9.801 0 5.523 4.477 10 10 10z" fill="#8bd2f5"/></g><g><path d="m37 33v29h4v-29" fill="#c18e59"/></g><g><path d="m60.05 31.025c-5.294-2.647-11.131-4.025-17.05-4.025v-1h-8v1c-5.919 0-11.756 1.378-17.05 4.025l-1.95.975 3.148-.286c5.232-.476 10.483-.714 15.736-.714h.116v2h8v-2h.116c5.253 0 10.504.238 15.736.714l3.148.286z" fill="#c7e2fc"/></g><g><path d="m44.82 24.199c-.719-3.544-3.475-6.299-7.019-7.019l.397-1.96c4.333.879 7.702 4.248 8.581 8.581z"/></g><g><path d="m34 37h-22c-6.065 0-11-4.935-11-11s4.935-11 11-11 11 4.935 11 11h-2c0-4.962-4.038-9-9-9s-9 4.038-9 9 4.038 9 9 9h22z"/></g><g><path d="m27 16h-2c0-3.86-3.14-7-7-7s-7 3.14-7 7h-2c0-4.962 4.038-9 9-9s9 4.038 9 9z"/></g><g><path d="m28.5 24v-2c5.238 0 9.5-4.262 9.5-9.5s-4.262-9.5-9.5-9.5c-3.649 0-7.02 2.131-8.586 5.429l-1.807-.858c1.897-3.992 5.976-6.571 10.393-6.571 6.341 0 11.5 5.159 11.5 11.5s-5.159 11.5-11.5 11.5z"/></g><g><path d="m43 34h-8c-.552 0-1-.448-1-1v-.998c-4.913.025-9.874.263-14.761.708l-3.148.286c-.479.036-.921-.26-1.052-.723s.084-.953.515-1.168l1.95-.975c5.106-2.553 10.789-3.969 16.497-4.117v-.013c0-.552.448-1 1-1h8c.552 0 1 .448 1 1v.013c5.708.148 11.391 1.564 16.497 4.117l1.95.975c.43.215.646.706.515 1.168-.131.463-.583.76-1.052.723l-3.148-.286c-4.888-.444-9.849-.682-14.761-.708v.998c-.002.552-.45 1-1.002 1zm-7-2h6v-1c0-.552.448-1 1-1h.116c4.413 0 8.871.17 13.286.506-4.263-1.646-8.835-2.506-13.402-2.506-.552 0-1-.448-1-1h-6c0 .552-.448 1-1 1-4.567 0-9.139.86-13.402 2.506 4.415-.336 8.873-.506 13.286-.506h.116c.552 0 1 .448 1 1z"/></g><g><path d="m41 63h-4c-.552 0-1-.448-1-1v-29h2v28h2v-28h2v29c0 .552-.448 1-1 1z"/></g></g></svg>