<svg xmlns="http://www.w3.org/2000/svg" viewBox="0 0 1978.03 728.76"><defs><style>.cls-1{fill:#fff;}.cls-2{fill:#f5a201;}</style></defs><g id="Capa_2" data-name="Capa 2"><g id="Capa_1-2" data-name="Capa 1"><path class="cls-1" d="M1023.92,389.74q0,11.16-5.86,18.83a36.49,36.49,0,0,1-15.8,11.63,57.85,57.85,0,0,1-21.67,4H915.68V289.82h71.91a27.08,27.08,0,0,1,16.37,5,33,33,0,0,1,10.6,12.86,38.1,38.1,0,0,1,3.69,16.37,36.22,36.22,0,0,1-4.92,18.26,31,31,0,0,1-14.38,13,34.35,34.35,0,0,1,18.26,12.3Q1023.92,376.49,1023.92,389.74ZM941.8,312.15V346h34.82a15.52,15.52,0,0,0,13.72-7.94,17.67,17.67,0,0,0,2.17-8.9,18.69,18.69,0,0,0-2-9,15.87,15.87,0,0,0-5.29-5.86,13.35,13.35,0,0,0-7.48-2.18Zm55.82,72.48a19.82,19.82,0,0,0-2.08-9.18,17.7,17.7,0,0,0-5.58-6.53,13.67,13.67,0,0,0-8.05-2.46H941.8V402h38.79a16.21,16.21,0,0,0,8.61-2.37,17.5,17.5,0,0,0,8.42-15Z"/><path class="cls-1" d="M1057.61,424.18V289.82h26.11V424.18Z"/><path class="cls-1" d="M1225.27,312.72H1182.5V424.18h-25.92V312.72h-43.15v-22.9h111.84Z"/><path class="cls-1" d="M1255.35,424.18V289.82h26.12V424.18Z"/><path class="cls-1" d="M1348.83,337.89v86.29h-26.11V289.82h21L1413,378.38V290h25.93V424.18h-21.57Z"/><path class="cls-1" d="M1494.16,289.82l36.33,103.51,35.77-103.51h27.44L1543,424.18h-25.16l-51.1-134.36Z"/><path class="cls-1" d="M1714.81,401.28v22.9h-93.3V289.82h91.59v22.9h-65.47v32.36H1704v21.19h-56.39v35Z"/><path class="cls-1" d="M1828.54,325a29.91,29.91,0,0,0-4.83-3.5,74,74,0,0,0-8.52-4.45,67.15,67.15,0,0,0-10.88-3.78,47.46,47.46,0,0,0-11.92-1.52q-10.59,0-16,3.86t-5.39,11.2a11.3,11.3,0,0,0,3.41,8.67q3.4,3.19,10.21,5.46t17,4.89a119.85,119.85,0,0,1,23,7.82,37.13,37.13,0,0,1,14.95,12.05q5.19,7.44,5.2,19.86,0,10.55-4,18.08A34.3,34.3,0,0,1,1830,416a46.76,46.76,0,0,1-15.9,7,81.15,81.15,0,0,1-19,2.16A98.32,98.32,0,0,1,1775,423a102.46,102.46,0,0,1-19.2-6,94.67,94.67,0,0,1-17.13-9.37l11.54-22.52a36.56,36.56,0,0,0,6.06,4.45,81,81,0,0,0,10.6,5.49,88,88,0,0,0,13.62,4.64,60,60,0,0,0,15,1.89q10.78,0,16.08-3.46a11.4,11.4,0,0,0,5.3-10.2,11.68,11.68,0,0,0-4.25-9.52,37.62,37.62,0,0,0-12-6q-7.77-2.54-18.36-5.37a104.36,104.36,0,0,1-21.29-8.1,33.13,33.13,0,0,1-12.67-11.21q-4.26-6.69-4.26-16.87,0-13.75,6.62-23.08a41.37,41.37,0,0,1,17.79-14.14,62.14,62.14,0,0,1,24.79-4.8A74.14,74.14,0,0,1,1811,291a88.33,88.33,0,0,1,15.8,5.48,95.17,95.17,0,0,1,13.25,7.38Z"/><path class="cls-1" d="M1978,312.72h-42.77V424.18h-25.92V312.72h-43.15v-22.9H1978Z"/><path class="cls-1" d="M500.51,356.63a76.76,76.76,0,0,0-60.22-124.44H415.63v-25.4H372.7v25.4H360.2v-25.4H317.26v25.4H297.72v42.93h19.54V342.9H297.72v42.93h19.54v67.78H297.72v42.93h19.54v25.4H360.2v-25.4h12.5v25.4h42.93v-25.4h41.09a76.8,76.8,0,0,0,43.79-139.91ZM440.29,342.9H360.2V275.12h80.09a33.89,33.89,0,0,1,0,67.78ZM360.2,385.83h96.52a33.89,33.89,0,0,1,0,67.78H360.2Z"/><path class="cls-2" d="M496.88,0,419.81,44.5,467,71.74l29.87-17.26,268.36,155v309.9L496.88,674.28,228.51,519.33V209.43l177.7-102.61L583.93,209.43v309.9L419.6,614.2l47.14,27.24,164.39-94.87V182.19L453.39,79.57l.13-.07-47.2-27.24-.12.07L315.56,0,0,182.19V546.57L315.56,728.76l90.68-52.33,90.64,52.33L812.44,546.57V182.19ZM315.56,674.28,47.2,519.33V209.43l268.36-155L359,79.57,181.31,182.19V546.57L359.05,649.19Z"/></g></g></svg>