<svg xmlns="http://www.w3.org/2000/svg" viewBox="0 0 777.35 739.25"><defs><style>.cls-1{fill:#fff;}.cls-2{fill:#f5a201;}</style></defs><g id="Capa_2" data-name="Capa 2"><g id="Capa_1-2" data-name="Capa 1"><path class="cls-1" d="M79.2,713.36a22,22,0,0,1-4.29,13.78,26.67,26.67,0,0,1-11.56,8.51,42.29,42.29,0,0,1-15.86,2.91H0V640.25H52.62a19.85,19.85,0,0,1,12,3.67,24.12,24.12,0,0,1,7.75,9.41,27.87,27.87,0,0,1,2.7,12,26.51,26.51,0,0,1-3.6,13.36,22.74,22.74,0,0,1-10.52,9.49,25.12,25.12,0,0,1,13.36,9Q79.19,703.67,79.2,713.36ZM19.11,656.59v24.78H44.59a11.33,11.33,0,0,0,5.81-1.52,11.61,11.61,0,0,0,4.23-4.29,12.87,12.87,0,0,0,1.59-6.51,13.73,13.73,0,0,0-1.46-6.58,11.64,11.64,0,0,0-3.87-4.29,9.76,9.76,0,0,0-5.47-1.59Zm40.85,53a14.52,14.52,0,0,0-1.53-6.72,12.83,12.83,0,0,0-4.08-4.77,10,10,0,0,0-5.89-1.8H19.11v26H47.49a11.89,11.89,0,0,0,6.3-1.73,12.84,12.84,0,0,0,6.17-11Z"/><path class="cls-1" d="M103.85,738.56V640.25H123v98.31Z"/><path class="cls-1" d="M226.53,657H195.24v81.56h-19V657H144.7V640.25h81.83Z"/><path class="cls-1" d="M248.55,738.56V640.25h19.1v98.31Z"/><path class="cls-1" d="M317,675.42v63.14H297.84V640.25h15.37l50.68,64.8V640.39h19v98.17H367.07Z"/><path class="cls-1" d="M423.29,640.25,449.88,716l26.17-75.74h20.07L459,738.56H440.6l-37.39-98.31Z"/><path class="cls-1" d="M584.74,721.8v16.76H516.48V640.25h67V657H535.59v23.68h41.26v15.51H535.59V721.8Z"/><path class="cls-1" d="M668,666a21.25,21.25,0,0,0-3.53-2.56,53.43,53.43,0,0,0-6.23-3.25,49,49,0,0,0-8-2.77,34.69,34.69,0,0,0-8.72-1.11c-5.18,0-9.07.94-11.71,2.82a9.47,9.47,0,0,0-3.94,8.2,8.28,8.28,0,0,0,2.49,6.34,20.31,20.31,0,0,0,7.48,4q5,1.65,12.46,3.58A87.34,87.34,0,0,1,665.12,687a27.08,27.08,0,0,1,10.94,8.82q3.81,5.44,3.81,14.54A28,28,0,0,1,677,723.55a25.08,25.08,0,0,1-8,9,34.34,34.34,0,0,1-11.63,5.1,59.61,59.61,0,0,1-13.92,1.58,72.36,72.36,0,0,1-14.67-1.52,75.78,75.78,0,0,1-14.06-4.36,70.14,70.14,0,0,1-12.53-6.86L610.64,710a26.57,26.57,0,0,0,4.43,3.26,58.59,58.59,0,0,0,7.75,4,65.45,65.45,0,0,0,10,3.4,44,44,0,0,0,10.94,1.38q7.89,0,11.77-2.53a8.36,8.36,0,0,0,3.88-7.46,8.51,8.51,0,0,0-3.12-7,27.31,27.31,0,0,0-8.79-4.41q-5.69-1.86-13.43-3.93a76.76,76.76,0,0,1-15.58-5.93,24.25,24.25,0,0,1-9.28-8.2q-3.1-4.89-3.11-12.34,0-10.08,4.84-16.9a30.27,30.27,0,0,1,13-10.34,45.5,45.5,0,0,1,18.14-3.52,54.08,54.08,0,0,1,13.08,1.53,64.11,64.11,0,0,1,11.57,4,68.84,68.84,0,0,1,9.69,5.4Z"/><path class="cls-1" d="M777.35,657H746.06v81.56h-19V657H695.52V640.25h81.83Z"/><path class="cls-1" d="M456.63,261.75a56.33,56.33,0,0,0-44.19-91.33h-18.1V151.78H362.83v18.64h-9.18V151.78H322.14v18.64H307.8v31.5h14.34v49.75H307.8v31.51h14.34v49.74H307.8v31.51h14.34v18.65h31.51V364.43h9.18v18.65h31.51V364.43H424.5a56.36,56.36,0,0,0,32.13-102.68Zm-44.19-10.08H353.65V201.92h58.79a24.88,24.88,0,0,1,0,49.75Zm-58.79,31.51H424.5a24.87,24.87,0,0,1,0,49.74H353.65Z"/><path class="cls-2" d="M454,0,397.4,32.66l34.64,20L454,40l197,113.72V381.16L454,494.89,257,381.16V153.71L387.42,78.4l130.44,75.31V381.16L397.25,450.79l34.6,20L552.5,401.15V133.72L422.05,58.4l.1,0-34.65-20-.09.06L320.89,0,89.28,133.72V401.15L320.89,534.87l66.55-38.4L454,534.87l231.6-133.72V133.72ZM320.89,494.89l-197-113.73V153.71L320.89,40l31.9,18.41L222.36,133.72V401.15l130.45,75.32Z"/></g></g></svg>